<svg xmlns="http://www.w3.org/2000/svg"  viewBox="0 0 128 128" width="128px" height="128px"><path fill="#fff" d="M109,104H19c-5.5,0-10-4.5-10-10V34c0-5.5,4.5-10,10-10h90c5.5,0,10,4.5,10,10v60C119,99.5,114.5,104,109,104z"/><path fill="#444b54" d="M109,107H19c-7.2,0-13-5.8-13-13V34c0-7.2,5.8-13,13-13h90c7.2,0,13,5.8,13,13v60C122,101.2,116.2,107,109,107z M19,27c-3.9,0-7,3.1-7,7v60c0,3.9,3.1,7,7,7h90c3.9,0,7-3.1,7-7V34c0-3.9-3.1-7-7-7H19z"/><path fill="#444b54" d="M9,52c-0.2,0-0.4,0-0.6-0.1c-0.2,0-0.4-0.1-0.6-0.2c-0.2-0.1-0.3-0.2-0.5-0.3c-0.2-0.1-0.3-0.2-0.5-0.4c-0.1-0.1-0.3-0.3-0.4-0.5c-0.1-0.2-0.2-0.3-0.3-0.5c-0.1-0.2-0.1-0.4-0.2-0.6C6,49.4,6,49.2,6,49c0-0.2,0-0.4,0.1-0.6c0-0.2,0.1-0.4,0.2-0.6c0.1-0.2,0.2-0.3,0.3-0.5c0.1-0.2,0.2-0.3,0.4-0.4c1.1-1.1,3.1-1.1,4.2,0c0.1,0.1,0.3,0.3,0.4,0.4c0.1,0.2,0.2,0.3,0.3,0.5c0.1,0.2,0.1,0.4,0.2,0.6c0,0.2,0.1,0.4,0.1,0.6c0,0.8-0.3,1.6-0.9,2.1C10.6,51.7,9.8,52,9,52z"/><path fill="#ff697d" d="M79 44A20 20 0 1 0 79 84A20 20 0 1 0 79 44Z"/><path fill="#fcf09d" d="M49 44A20 20 0 1 0 49 84A20 20 0 1 0 49 44Z"/></svg>