<svg xmlns="http://www.w3.org/2000/svg"  viewBox="0 0 128 128" width="128px" height="128px"><path fill="#fff" d="M86 4A38 38 0 1 0 86 80A38 38 0 1 0 86 4Z"/><path fill="#71c2ff" d="M86 32A10 10 0 1 0 86 52A10 10 0 1 0 86 32Z"/><path fill="#fff" d="M53.2 54.8L64 64 64 84 44 84 44 104 24 104 24 124 4 124 4 104z"/><path fill="#444b54" d="M86,83c-22.6,0-41-18.4-41-41S63.4,1,86,1s41,18.4,41,41S108.6,83,86,83z M86,7C66.7,7,51,22.7,51,42 s15.7,35,35,35s35-15.7,35-35S105.3,7,86,7z"/><path fill="#444b54" d="M24,127H4c-1.7,0-3-1.3-3-3v-20c0-0.8,0.3-1.6,0.9-2.1l38.3-38.3c1.2-1.2,3.1-1.2,4.2,0 c1.2,1.2,1.2,3.1,0,4.2L7,105.2V121h14v-17c0-1.7,1.3-3,3-3h17V84c0-1.7,1.3-3,3-3h17c1.7,0,3,1.3,3,3s-1.3,3-3,3H47v17 c0,1.7-1.3,3-3,3H27v17C27,125.7,25.7,127,24,127z"/></svg>