<svg xmlns="http://www.w3.org/2000/svg"  viewBox="0 0 128 128" width="128px" height="128px"><path fill="#fff" d="M96,119H22V19c0-5.5,4.5-10,10-10h54c11,0,20,9,20,20v80C106,114.5,101.5,119,96,119z"/><path fill="#71c2ff" d="M82 122c-.8 0-1.7-.4-2.3-1L52 88.6 24.3 121c-1.1 1.3-3 1.4-4.2.3-1.3-1.1-1.4-3-.3-4.2l30-35c.6-.7 1.4-1 2.3-1s1.7.4 2.3 1l30 35c1.1 1.3.9 3.2-.3 4.2C83.4 121.8 82.7 122 82 122zM89 109c-.9 0-1.8-.4-2.4-1.2L72 89l-.6.8c-1 1.3-2.9 1.6-4.2.6-1.3-1-1.6-2.9-.6-4.2l3-4C70.2 81.5 71 81 72 81c0 0 0 0 0 0 .9 0 1.8.4 2.4 1.2l17 22c1 1.3.8 3.2-.5 4.2C90.3 108.8 89.6 109 89 109zM76 67c-7.2 0-13-5.8-13-13s5.8-13 13-13 13 5.8 13 13S83.2 67 76 67zM76 47c-3.9 0-7 3.1-7 7s3.1 7 7 7 7-3.1 7-7S79.9 47 76 47z"/><g><path fill="#444b54" d="M22,92c1.7,0,3-1.3,3-3V19c0-3.9,3.1-7,7-7h51v7c0,7.2,5.8,13,13,13h7v77c0,3.9-3.1,7-7,7c-1.7,0-3,1.3-3,3s1.3,3,3,3c7.2,0,13-5.8,13-13V29c0-12.7-10.3-23-23-23H32c-7.2,0-13,5.8-13,13v70C19,90.7,20.3,92,22,92z M102.7,26H96c-3.9,0-7-3.1-7-7v-6.7C96,13.5,101.5,19,102.7,26z"/></g></svg>