<?xml version="1.0" encoding="UTF-8" standalone="no"?>
<svg
   xmlns:dc="http://purl.org/dc/elements/1.1/"
   xmlns:cc="http://creativecommons.org/ns#"
   xmlns:rdf="http://www.w3.org/1999/02/22-rdf-syntax-ns#"
   xmlns:svg="http://www.w3.org/2000/svg"
   xmlns="http://www.w3.org/2000/svg"
   xmlns:sodipodi="http://sodipodi.sourceforge.net/DTD/sodipodi-0.dtd"
   xmlns:inkscape="http://www.inkscape.org/namespaces/inkscape"
   height="500"
   overflow="scroll"
   width="500"
   version="1.1"
   id="svg12"
   sodipodi:docname="logo_latex.svg"
   inkscape:version="1.0.2 (e86c870879, 2021-01-15, custom)">
  <metadata
     id="metadata18">
    <rdf:RDF>
      <cc:Work
         rdf:about="">
        <dc:format>image/svg+xml</dc:format>
        <dc:type
           rdf:resource="http://purl.org/dc/dcmitype/StillImage" />
        <dc:title></dc:title>
      </cc:Work>
    </rdf:RDF>
  </metadata>
  <defs
     id="defs16" />
  <sodipodi:namedview
     pagecolor="#ffffff"
     bordercolor="#666666"
     borderopacity="1"
     objecttolerance="10"
     gridtolerance="10"
     guidetolerance="10"
     inkscape:pageopacity="0"
     inkscape:pageshadow="2"
     inkscape:window-width="1842"
     inkscape:window-height="1057"
     id="namedview14"
     showgrid="false"
     inkscape:zoom="1.2280088"
     inkscape:cx="494.74754"
     inkscape:cy="280.12723"
     inkscape:window-x="70"
     inkscape:window-y="-8"
     inkscape:window-maximized="1"
     inkscape:current-layer="svg12" />
  <path
     d="m 124.3972,243.5188 h -4.68 c -1.872,19.0944 -4.4928,42.3072 -37.44,42.3072 H 67.114 c -8.7984,0 -9.1728,-1.3104 -9.1728,-7.488 v -99.4032 c 0,-6.3648 0,-8.9856 17.5968,-8.9856 h 6.1776 v -5.616 c -6.7392,0.5616 -23.5872,0.5616 -31.2624,0.5616 -7.3008,0 -21.9024,0 -28.2672,-0.5616 v 5.616 h 4.3056 c 14.4144,0 14.7888,2.0592 14.7888,8.7984 v 98.28 c 0,6.7392 -0.3744,8.7984 -14.7888,8.7984 H 22.186 v 5.8032 h 97.1568 z"
     id="path2"
     style="stroke-width:18.72" />
  <path
     d="m 121.2148,164.146 c -0.7488,-2.2464 -1.1232,-2.9952 -3.5568,-2.9952 -2.4336,0 -2.9952,0.7488 -3.744,2.9952 l -30.1392,76.3776 c -1.3104,3.1824 -3.5568,8.9856 -15.1632,8.9856 v 4.68 h 29.016 v -4.68 c -5.8032,0 -9.36,-2.6208 -9.36,-6.3648 0,-0.936 0.1872,-1.3104 0.5616,-2.6208 0,0 6.3648,-16.0992 6.3648,-16.0992 h 37.0656 l 7.488,19.0944 c 0.3744,0.7488 0.7488,1.6848 0.7488,2.2464 0,3.744 -7.1136,3.744 -10.6704,3.744 v 4.68 h 36.8784 v -4.68 h -2.6208 c -8.7984,0 -9.7344,-1.3104 -11.0448,-5.0544 0,0 -31.824,-80.3088 -31.824,-80.3088 z m -7.488,13.2912 16.6608,42.3072 H 97.066 Z"
     id="path4"
     style="stroke-width:18.72" />
  <path
     d="M 271.162,165.4564 H 157.1572 c 0,0 -3.3696,41.9328 -3.3696,41.9328 h 4.4928 c 2.6208,-30.1392 5.4288,-36.3168 33.696,-36.3168 3.3696,0 8.2368,0 10.1088,0.3744 3.9312,0.7488 3.9312,2.808 3.9312,7.1136 v 98.28 c 0,6.3648 0,8.9856 -19.656,8.9856 h -7.488 v 5.8032 c 7.6752,-0.5616 26.5824,-0.5616 35.1936,-0.5616 8.6112,0 27.8928,0 35.568,0.5616 v -5.8032 h -7.488 c -19.656,0 -19.656,-2.6208 -19.656,-8.9856 v -98.28 c 0,-3.744 0,-6.3648 3.3696,-7.1136 2.0592,-0.3744 7.1136,-0.3744 10.6704,-0.3744 28.08,0 30.888,6.1776 33.5088,36.3168 h 4.68 c 0,0 -3.5568,-41.9328 -3.5568,-41.9328 z"
     id="path6"
     style="stroke-width:18.72" />
  <path
     d="m 371.5012,285.6388 h -4.68 c -4.68,28.6416 -8.9856,42.3072 -40.9968,42.3072 H 301.114 c -8.7984,0 -9.1728,-1.3104 -9.1728,-7.488 v -49.7952 h 16.6608 c 18.1584,0 20.2176,5.9904 20.2176,21.9024 h 4.68 v -49.4208 h -4.68 c 0,15.912 -2.0592,21.7152 -20.2176,21.7152 h -16.6608 v -44.7408 c 0,-6.1776 0.3744,-7.488 9.1728,-7.488 h 23.9616 c 28.6416,0 33.5088,10.296 36.504,36.3168 h 4.68 L 361.018,207.0148 H 256.186 v 5.616 h 4.3056 c 14.4144,0 14.7888,2.0592 14.7888,8.7984 v 97.7184 c 0,6.7392 -0.3744,8.7984 -14.7888,8.7984 h -4.3056 v 5.8032 h 107.4528 z"
     id="path8"
     style="stroke-width:18.72" />
  <path
     d="m 427.8484,219.5572 25.6464,-37.44 c 3.9312,-5.9904 10.296,-11.9808 26.9568,-12.168 v -5.616 H 435.898 v 5.616 c 7.488,0.1872 11.6064,4.3056 11.6064,8.6112 0,1.872 -0.3744,2.2464 -1.6848,4.3056 0,0 -21.3408,31.4496 -21.3408,31.4496 l -23.9616,-35.9424 c -0.3744,-0.5616 -1.3104,-2.0592 -1.3104,-2.808 0,-2.2464 4.1184,-5.4288 11.9808,-5.616 v -5.616 c -6.3648,0.5616 -20.0304,0.5616 -27.144,0.5616 -5.8032,0 -17.4096,-0.1872 -24.336,-0.5616 v 5.616 h 3.5568 c 10.296,0 13.8528,1.3104 17.4096,6.552 0,0 34.2576,51.8544 34.2576,51.8544 l -30.5136,45.1152 c -2.6208,3.744 -8.2368,12.3552 -26.9568,12.3552 v 5.8032 h 44.5536 v -5.8032 c -8.6112,-0.1872 -11.7936,-5.2416 -11.7936,-8.6112 0,-1.6848 0.5616,-2.4336 1.872,-4.4928 l 26.3952,-39.1248 29.5776,44.5536 c 0.3744,0.7488 0.936,1.4976 0.936,2.0592 0,2.2464 -4.1184,5.4288 -12.168,5.616 v 5.8032 c 6.552,-0.5616 20.2176,-0.5616 27.144,-0.5616 7.8624,0 16.4736,0.1872 24.336,0.5616 v -5.8032 h -3.5568 c -9.7344,0 -13.6656,-0.936 -17.5968,-6.7392 0,0 -39.312,-59.5296 -39.312,-59.5296 z"
     id="path10"
     style="stroke-width:18.72" />
</svg>
