<?xml version="1.0" encoding="UTF-8" standalone="no"?>
<svg
   xmlns:dc="http://purl.org/dc/elements/1.1/"
   xmlns:cc="http://creativecommons.org/ns#"
   xmlns:rdf="http://www.w3.org/1999/02/22-rdf-syntax-ns#"
   xmlns:svg="http://www.w3.org/2000/svg"
   xmlns="http://www.w3.org/2000/svg"
   viewBox="0 0 1000 999.99999"
   height="1000"
   width="1000"
   xml:space="preserve"
   id="svg2"
   version="1.1"><metadata
     id="metadata8"><rdf:RDF><cc:Work
         rdf:about=""><dc:format>image/svg+xml</dc:format><dc:type
           rdf:resource="http://purl.org/dc/dcmitype/StillImage" /><dc:title></dc:title></cc:Work></rdf:RDF></metadata><defs
     id="defs6" /><g
     transform="matrix(1.3333333,0,0,-1.3333333,0,1000.0013)"
     id="g10"><path
       d="m -108.262,-596.557 c 44.59,0 80.957,-36.371 80.957,-80.961 0,-44.59 -36.367,-80.957 -80.957,-80.957 -44.59,0 -80.961,36.367 -80.961,80.957 0,44.59 36.371,80.961 80.961,80.961 z"
       style="fill:#ffffff;fill-opacity:1;fill-rule:nonzero;stroke:none"
       id="path14" /><path
       d="m -108.262,-592.479 c 46.836,0 85.039,-38.199 85.039,-85.039 0,-46.836 -38.203,-85.039 -85.039,-85.039 -46.84,0 -85.039,38.203 -85.039,85.039 0,46.84 38.199,85.039 85.039,85.039 z m -2.015,-86.063 c 2.695,0 5.183,-0.898 7.187,-2.41 -1.824,1.504 -4.055,2.563 -6.547,2.973 -7.535,1.234 -14.687,-3.899 -15.925,-11.434 -0.036,-0.238 -0.071,-0.472 -0.094,-0.711 -7.184,2.778 -11.723,10.332 -10.43,18.215 l 4.492,27.352 30.946,-3.34 c 0.625,-0.067 1.218,0.64 1.32,1.574 v 0 c 0.101,0.934 -0.328,1.75 -0.953,1.816 l -30.762,3.321 0.34,2.054 30.961,-3.339 c 0.621,-0.067 1.219,0.64 1.316,1.574 v 0 c 0.102,0.933 -0.328,1.75 -0.949,1.816 l -30.777,3.324 0.484,2.946 30.828,-3.328 c 0.625,-0.067 1.219,0.64 1.32,1.574 v 0 c 0.102,0.933 -0.328,1.75 -0.953,1.816 l -30.64,3.309 0.461,2.805 31.082,-3.356 c 0.621,-0.066 1.215,0.641 1.316,1.574 v 0 c 0.102,0.934 -0.328,1.754 -0.953,1.821 l -30.895,3.332 0.512,3.121 c 3.758,22.89 51.149,16.683 47.141,-7.739 l -8.5,-51.765 c -0.899,-5.485 -4.422,-9.91 -9.074,-12.211 0.027,1.738 -0.278,3.43 -0.864,5 0.367,-1.149 0.571,-2.375 0.571,-3.645 0,-5.562 -3.832,-10.257 -8.993,-11.582 v -42.332 c 0,-2.593 -1.726,-4.718 -3.836,-4.718 h -5.308 c -2.109,0 -3.832,2.125 -3.832,4.718 v 47.387 c -1.235,1.879 -1.953,4.121 -1.953,6.527 0,6.59 5.375,11.961 11.961,11.961 z"
       style="fill:#ff0000;fill-opacity:1;fill-rule:nonzero;stroke:none"
       id="path16" /><path
       d="M 750.00002,375.00101 C 750.00002,167.90191 582.10352,0.001 375.00001,0.001 167.8965,0.001 0,167.90191 0,375.00101 c 0,207.10351 167.8965,375.00001 375.00001,375.00001 207.10351,0 375.00001,-167.8965 375.00001,-375.00001 z"
       style="fill:#d6d7ef;fill-opacity:1;fill-rule:nonzero;stroke:none;stroke-width:4.4097414"
       id="path18" /><path
       d="m 375.00001,750.00102 c 206.55229,0 375.00001,-168.44772 375.00001,-375.00001 C 750.00002,168.45313 581.5523,0.001 375.00001,0.001 168.44772,0.001 0,168.45313 0,375.00101 0,581.5533 168.44772,750.00102 375.00001,750.00102 Z M 145.2613,173.27297 h 435.4311 l 0.0176,78.78886 53.89586,-0.0132 0.0176,153.459 h -53.9135 V 608.69967 H 145.2613 Z m 42.91119,365.68223 151.08656,0.0529 v 9.7323 l -151.03364,-0.0529 z m 0.0353,-21.92965 151.05128,-0.0485 v 9.79844 l -151.03364,-0.0661 z m 0,-21.99579 150.98073,0.0529 0.0529,9.64411 -151.06893,0.0529 z m 0,-21.97815 h 151.06892 l -0.0353,9.7323 -151.03365,0.0176 z m 0,-22.03107 151.03365,0.10143 0.0176,9.71466 H 188.25628 Z"
       style="fill:#3139ae;fill-opacity:1;fill-rule:nonzero;stroke:none;stroke-width:4.4097414"
       id="path20" /></g></svg>