<?xml version="1.0" encoding="UTF-8" standalone="no"?>
<svg
   xmlns:dc="http://purl.org/dc/elements/1.1/"
   xmlns:cc="http://creativecommons.org/ns#"
   xmlns:rdf="http://www.w3.org/1999/02/22-rdf-syntax-ns#"
   xmlns:svg="http://www.w3.org/2000/svg"
   xmlns="http://www.w3.org/2000/svg"
   xmlns:sodipodi="http://sodipodi.sourceforge.net/DTD/sodipodi-0.dtd"
   xmlns:inkscape="http://www.inkscape.org/namespaces/inkscape"
   version="1.1"
   id="Layer_1"
   x="0px"
   y="0px"
   width="300"
   height="300"
   viewBox="0 0 300 299.99999"
   enable-background="new 0 0 306 344.35"
   xml:space="preserve"
   sodipodi:docname="logo_cpp.svg"
   inkscape:version="1.0.2 (e86c870879, 2021-01-15, custom)"><metadata
   id="metadata25"><rdf:RDF><cc:Work
       rdf:about=""><dc:format>image/svg+xml</dc:format><dc:type
         rdf:resource="http://purl.org/dc/dcmitype/StillImage" /><dc:title></dc:title></cc:Work></rdf:RDF></metadata><defs
   id="defs23" /><sodipodi:namedview
   pagecolor="#ffffff"
   bordercolor="#666666"
   borderopacity="1"
   objecttolerance="10"
   gridtolerance="10"
   guidetolerance="10"
   inkscape:pageopacity="0"
   inkscape:pageshadow="2"
   inkscape:window-width="1842"
   inkscape:window-height="1057"
   id="namedview21"
   showgrid="true"
   inkscape:zoom="1.4142136"
   inkscape:cx="221.00704"
   inkscape:cy="174.22808"
   inkscape:window-x="70"
   inkscape:window-y="-8"
   inkscape:window-maximized="1"
   inkscape:current-layer="Layer_1"><inkscape:grid
     type="xygrid"
     id="grid27" /></sodipodi:namedview>
<path
   fill="#00599c"
   d="m 279.74095,224.34887 c 2.04085,-3.53515 3.30905,-7.51825 3.30905,-11.09505 V 89.09517 c 0,-3.5768 -1.2665,-7.55905 -3.3082,-11.094195 L 153,151.17492 Z"
   id="path2"
   style="stroke-width:0.85" />
<path
   fill="#004482"
   d="m 164.2625,294.84022 107.525,-62.0789 c 3.0974,-1.7884 5.9126,-4.87645 7.95345,-8.41245 L 153,151.17492 26.25905,224.34972 c 2.04085,3.53515 4.8569,6.62405 7.95345,8.4116 l 107.525,62.0789 c 6.19395,3.5768 16.33105,3.5768 22.525,0 z"
   id="path4"
   style="stroke-width:0.85" />
<path
   fill="#659ad2"
   d="m 279.7418,78.000125 c -2.0417,-3.536 -4.85775,-6.62405 -7.9543,-8.41245 l -107.525,-62.0789 c -6.19395,-3.5768 -16.33105,-3.5768 -22.525,0 l -107.525,62.0789 C 28.0177,73.163625 22.95,81.94242 22.95,89.09517 v 124.15865 c 0,3.5768 1.26735,7.5599 3.30905,11.09505 L 153,151.17492 Z"
   id="path6"
   style="stroke-width:0.85" />
<g
   id="g10"
   transform="matrix(0.85,0,0,0.85,22.95,4.826175)">
	<path
   fill="#ffffff"
   d="m 153,274.175 c -56.243,0 -102,-45.757 -102,-102 0,-56.243 45.757,-102 102,-102 36.292,0 70.139,19.53 88.331,50.968 l -44.143,25.544 C 188.083,130.951 171.15,121.175 153,121.175 c -28.122,0 -51,22.878 -51,51 0,28.121 22.878,51 51,51 18.152,0 35.085,-9.776 44.191,-25.515 l 44.143,25.543 c -18.192,31.441 -52.04,50.972 -88.334,50.972 z"
   id="path8" />
</g>
<g
   id="g14"
   transform="matrix(0.85,0,0,0.85,22.95,4.826175)">
	<polygon
   fill="#ffffff"
   points="221,177.841 232.334,177.841 232.334,189.175 243.666,189.175 243.666,177.841 255,177.841 255,166.508 243.666,166.508 243.666,155.175 232.334,155.175 232.334,166.508 221,166.508 "
   id="polygon12" />
</g>
<g
   id="g18"
   transform="matrix(0.85,0,0,0.85,22.95,4.826175)">
	<polygon
   fill="#ffffff"
   points="263.5,177.841 274.834,177.841 274.834,189.175 286.166,189.175 286.166,177.841 297.5,177.841 297.5,166.508 286.166,166.508 286.166,155.175 274.834,155.175 274.834,166.508 263.5,166.508 "
   id="polygon16" />
</g>
</svg>
